<mxfile host="Electron" agent="Mozilla/5.0 (Windows NT 10.0; Win64; x64) AppleWebKit/537.36 (KHTML, like Gecko) draw.io/26.0.9 Chrome/128.0.6613.186 Electron/32.2.5 Safari/537.36" version="26.0.9">
  <diagram name="Página-1" id="lDhoNKnEGq-KqR6hK-Fr">
    <mxGraphModel dx="1687" dy="984" grid="1" gridSize="10" guides="1" tooltips="1" connect="1" arrows="1" fold="1" page="1" pageScale="1" pageWidth="827" pageHeight="1169" math="0" shadow="0">
      <root>
        <mxCell id="0" />
        <mxCell id="1" parent="0" />
        <mxCell id="BOuWUsfxsTuO5UxxuDiB-14" value="" style="edgeStyle=orthogonalEdgeStyle;rounded=0;orthogonalLoop=1;jettySize=auto;html=1;" edge="1" parent="1" source="BOuWUsfxsTuO5UxxuDiB-1" target="BOuWUsfxsTuO5UxxuDiB-11">
          <mxGeometry relative="1" as="geometry" />
        </mxCell>
        <mxCell id="BOuWUsfxsTuO5UxxuDiB-1" value="INÍCIO" style="ellipse;whiteSpace=wrap;html=1;" vertex="1" parent="1">
          <mxGeometry x="330" y="40" width="150" height="40" as="geometry" />
        </mxCell>
        <mxCell id="BOuWUsfxsTuO5UxxuDiB-2" value="FIM" style="ellipse;whiteSpace=wrap;html=1;" vertex="1" parent="1">
          <mxGeometry x="330" y="1090" width="150" height="40" as="geometry" />
        </mxCell>
        <mxCell id="BOuWUsfxsTuO5UxxuDiB-16" value="" style="edgeStyle=orthogonalEdgeStyle;rounded=0;orthogonalLoop=1;jettySize=auto;html=1;" edge="1" parent="1" source="BOuWUsfxsTuO5UxxuDiB-3" target="BOuWUsfxsTuO5UxxuDiB-5">
          <mxGeometry relative="1" as="geometry" />
        </mxCell>
        <mxCell id="BOuWUsfxsTuO5UxxuDiB-3" value="N" style="shape=parallelogram;html=1;strokeWidth=2;perimeter=parallelogramPerimeter;whiteSpace=wrap;rounded=1;arcSize=12;size=0.23;" vertex="1" parent="1">
          <mxGeometry x="355" y="320" width="100" height="60" as="geometry" />
        </mxCell>
        <mxCell id="BOuWUsfxsTuO5UxxuDiB-7" value="" style="edgeStyle=orthogonalEdgeStyle;rounded=0;orthogonalLoop=1;jettySize=auto;html=1;" edge="1" parent="1" source="BOuWUsfxsTuO5UxxuDiB-5">
          <mxGeometry relative="1" as="geometry">
            <mxPoint x="581.5" y="519.9999999999998" as="targetPoint" />
          </mxGeometry>
        </mxCell>
        <mxCell id="BOuWUsfxsTuO5UxxuDiB-26" value="" style="edgeStyle=orthogonalEdgeStyle;rounded=0;orthogonalLoop=1;jettySize=auto;html=1;" edge="1" parent="1" source="BOuWUsfxsTuO5UxxuDiB-5" target="BOuWUsfxsTuO5UxxuDiB-19">
          <mxGeometry relative="1" as="geometry" />
        </mxCell>
        <mxCell id="BOuWUsfxsTuO5UxxuDiB-5" value="ENQUANTO N != 0" style="strokeWidth=2;html=1;shape=mxgraph.flowchart.decision;whiteSpace=wrap;" vertex="1" parent="1">
          <mxGeometry x="330" y="480" width="150" height="80" as="geometry" />
        </mxCell>
        <mxCell id="BOuWUsfxsTuO5UxxuDiB-10" value="" style="edgeStyle=orthogonalEdgeStyle;rounded=0;orthogonalLoop=1;jettySize=auto;html=1;" edge="1" parent="1" source="BOuWUsfxsTuO5UxxuDiB-8" target="BOuWUsfxsTuO5UxxuDiB-9">
          <mxGeometry relative="1" as="geometry" />
        </mxCell>
        <mxCell id="BOuWUsfxsTuO5UxxuDiB-8" value="N++" style="rounded=1;whiteSpace=wrap;html=1;" vertex="1" parent="1">
          <mxGeometry x="580" y="500" width="100" height="40" as="geometry" />
        </mxCell>
        <mxCell id="BOuWUsfxsTuO5UxxuDiB-13" value="" style="edgeStyle=orthogonalEdgeStyle;rounded=0;orthogonalLoop=1;jettySize=auto;html=1;" edge="1" parent="1" source="BOuWUsfxsTuO5UxxuDiB-9" target="BOuWUsfxsTuO5UxxuDiB-12">
          <mxGeometry relative="1" as="geometry" />
        </mxCell>
        <mxCell id="BOuWUsfxsTuO5UxxuDiB-31" value="" style="edgeStyle=orthogonalEdgeStyle;rounded=0;orthogonalLoop=1;jettySize=auto;html=1;" edge="1" parent="1" source="BOuWUsfxsTuO5UxxuDiB-9" target="BOuWUsfxsTuO5UxxuDiB-19">
          <mxGeometry relative="1" as="geometry" />
        </mxCell>
        <mxCell id="BOuWUsfxsTuO5UxxuDiB-9" value="N &amp;gt; 100" style="strokeWidth=2;html=1;shape=mxgraph.flowchart.decision;whiteSpace=wrap;" vertex="1" parent="1">
          <mxGeometry x="540" y="640" width="180" height="70" as="geometry" />
        </mxCell>
        <mxCell id="BOuWUsfxsTuO5UxxuDiB-15" value="" style="edgeStyle=orthogonalEdgeStyle;rounded=0;orthogonalLoop=1;jettySize=auto;html=1;" edge="1" parent="1" source="BOuWUsfxsTuO5UxxuDiB-11" target="BOuWUsfxsTuO5UxxuDiB-3">
          <mxGeometry relative="1" as="geometry" />
        </mxCell>
        <mxCell id="BOuWUsfxsTuO5UxxuDiB-11" value="N_&amp;gt;_100 = 0" style="rounded=1;whiteSpace=wrap;html=1;" vertex="1" parent="1">
          <mxGeometry x="345" y="170" width="120" height="60" as="geometry" />
        </mxCell>
        <mxCell id="BOuWUsfxsTuO5UxxuDiB-32" value="" style="edgeStyle=orthogonalEdgeStyle;rounded=0;orthogonalLoop=1;jettySize=auto;html=1;" edge="1" parent="1" source="BOuWUsfxsTuO5UxxuDiB-12" target="BOuWUsfxsTuO5UxxuDiB-18">
          <mxGeometry relative="1" as="geometry" />
        </mxCell>
        <mxCell id="BOuWUsfxsTuO5UxxuDiB-12" value="N_&amp;gt;_100 += N" style="rounded=1;whiteSpace=wrap;html=1;" vertex="1" parent="1">
          <mxGeometry x="570" y="790" width="120" height="60" as="geometry" />
        </mxCell>
        <mxCell id="BOuWUsfxsTuO5UxxuDiB-34" value="" style="edgeStyle=orthogonalEdgeStyle;rounded=0;orthogonalLoop=1;jettySize=auto;html=1;" edge="1" parent="1" source="BOuWUsfxsTuO5UxxuDiB-18">
          <mxGeometry relative="1" as="geometry">
            <mxPoint x="437.5" y="970" as="targetPoint" />
          </mxGeometry>
        </mxCell>
        <mxCell id="BOuWUsfxsTuO5UxxuDiB-18" value="N_&amp;gt;_100" style="strokeWidth=2;html=1;shape=mxgraph.flowchart.display;whiteSpace=wrap;" vertex="1" parent="1">
          <mxGeometry x="580" y="940" width="100" height="60" as="geometry" />
        </mxCell>
        <mxCell id="BOuWUsfxsTuO5UxxuDiB-28" value="" style="edgeStyle=orthogonalEdgeStyle;rounded=0;orthogonalLoop=1;jettySize=auto;html=1;" edge="1" parent="1" source="BOuWUsfxsTuO5UxxuDiB-19" target="BOuWUsfxsTuO5UxxuDiB-27">
          <mxGeometry relative="1" as="geometry" />
        </mxCell>
        <mxCell id="BOuWUsfxsTuO5UxxuDiB-19" value="" style="ellipse;whiteSpace=wrap;html=1;aspect=fixed;" vertex="1" parent="1">
          <mxGeometry x="372.5" y="642.5" width="65" height="65" as="geometry" />
        </mxCell>
        <mxCell id="BOuWUsfxsTuO5UxxuDiB-21" value="SIM" style="text;html=1;align=center;verticalAlign=middle;whiteSpace=wrap;rounded=0;" vertex="1" parent="1">
          <mxGeometry x="489" y="490" width="60" height="30" as="geometry" />
        </mxCell>
        <mxCell id="BOuWUsfxsTuO5UxxuDiB-22" value="NÃO" style="text;html=1;align=center;verticalAlign=middle;whiteSpace=wrap;rounded=0;" vertex="1" parent="1">
          <mxGeometry x="630" y="580" width="60" height="30" as="geometry" />
        </mxCell>
        <mxCell id="BOuWUsfxsTuO5UxxuDiB-23" value="SIM" style="text;html=1;align=center;verticalAlign=middle;whiteSpace=wrap;rounded=0;" vertex="1" parent="1">
          <mxGeometry x="620" y="730" width="60" height="30" as="geometry" />
        </mxCell>
        <mxCell id="BOuWUsfxsTuO5UxxuDiB-24" value="NÃO" style="text;html=1;align=center;verticalAlign=middle;whiteSpace=wrap;rounded=0;" vertex="1" parent="1">
          <mxGeometry x="455" y="642.5" width="60" height="30" as="geometry" />
        </mxCell>
        <mxCell id="BOuWUsfxsTuO5UxxuDiB-29" value="" style="edgeStyle=orthogonalEdgeStyle;rounded=0;orthogonalLoop=1;jettySize=auto;html=1;" edge="1" parent="1" source="BOuWUsfxsTuO5UxxuDiB-27" target="BOuWUsfxsTuO5UxxuDiB-2">
          <mxGeometry relative="1" as="geometry" />
        </mxCell>
        <mxCell id="BOuWUsfxsTuO5UxxuDiB-27" value="" style="ellipse;whiteSpace=wrap;html=1;aspect=fixed;" vertex="1" parent="1">
          <mxGeometry x="372.5" y="937.5" width="65" height="65" as="geometry" />
        </mxCell>
      </root>
    </mxGraphModel>
  </diagram>
</mxfile>
